<mxfile host="app.diagrams.net" modified="2024-03-12T02:11:22.031Z" agent="Mozilla/5.0 (Windows NT 10.0; Win64; x64) AppleWebKit/537.36 (KHTML, like Gecko) Chrome/114.0.0.0 Safari/537.36" version="23.1.7" etag="IxVDc_3TpF_Rpo4Z0pn3" type="github">
  <diagram name="第 1 页" id="e06zxtoDePFfVoafhIhc">
    <mxGraphModel>
      <root>
        <mxCell id="0" />
        <mxCell id="1" parent="0" />
      </root>
    </mxGraphModel>
  </diagram>
</mxfile>
